<?xml version="1.0" encoding="utf-8"?>
<!-- Generator: Adobe Illustrator 14.0.0, SVG Export Plug-In . SVG Version: 6.00 Build 43363)  -->
<!DOCTYPE svg PUBLIC "-//W3C//DTD SVG 1.1//EN" "http://www.w3.org/Graphics/SVG/1.1/DTD/svg11.dtd">
<svg version="1.1" id="Layer_2" xmlns="http://www.w3.org/2000/svg" xmlns:xlink="http://www.w3.org/1999/xlink" x="0px" y="0px"
	 width="413px" height="716px" viewBox="0 0 413 716" enable-background="new 0 0 413 716" xml:space="preserve">
<g>
	<g>
		<path fill="#69BA96" d="M338.207,76.519c-6.914-7.703-17.832-9.613-25.173-1.445c-0.305,0.34-0.593,0.689-0.867,1.047
			c-0.28,0.365-1.186,0.397-1.387,0.048c-6.197-10.774-19.404-15.889-31.499-11.517c-13.566,4.902-20.589,19.875-15.687,33.44
			c0.397,1.097,0.861,2.15,1.384,3.158c0.328,0.63,1.356,1.681-0.378,2.144c-3.644,0.972-7.193,2.968-10.46,6.02
			c-0.656,0.613-0.927,0.211-1.413-0.399c-0.309-0.388-0.792-0.778-1.288-1.308c-1.599-1.705-3.722-2.644-5.922-3.259
			c-4.29-1.197-4.335-1.015-2.711-5.765c0.323-0.944,0.499-2.014,0.499-3.221v-0.101c0.012-5.143-3.938-8.866-9.012-6.571
			l-0.061,0.026c-0.485,0.182-0.848,0.268-1.109,0.306c-0.088-0.419-0.177-1.137-0.177-2.333V72.183
			c4.52,0.05,8.993-0.173,10.209-5.448c0.997-4.317-0.997-10.042-6.167-10.042h-4.042v-1.87c0-5.141-2.911-7.65-7.907-7.86
			c-3.987-0.168-8.612,1.743-8.612,6.356v3.39c-1.664,0.11-3.463,0.824-4.7,2.412c-1.197-0.889-2.487-1.378-3.3-1.688l-0.053-0.021
			c-5.991-2.279-13.323-2.082-18.848,1.342c-2.449,1.518-4.503,3.683-5.721,6.308c-1.162,2.505-4.92-3.318-5.679-4.026
			c-9.702-9.065-26.837-5.687-32.989,5.782c-1.555,2.901-3.568-1.407-4.197-2.42c-1.463-2.361-3.437-4.381-5.797-5.852
			c-4.838-3.015-11.181-3.436-16.46-1.353V46.388l0.001-0.13c0.116-9.232-16.52-9.564-16.52-0.63v0.254
			c-0.012,33.313-0.014,45.408-0.003,49.895c0.001,0.653-0.244,1.349-1.237,1.329c-5.355-0.108-10.897,1.444-15.96,2.703
			c-3.271,0.813-6.57,1.325-9.945,1.188c-1.317-0.053-4.324-0.793-6.33-2.13c-2.169-1.694-0.233-2.864,0.237-3.156
			c1.312-0.814,2.54-1.988,3.528-3.166c3.117-3.713,2.054-7.974-0.719-11.551c-6.342-8.182-17.384-2.435-22.666,3.536
			c-7.287,8.235-4.104,19.819,2.806,27.095c9.588,10.098,24.27,6.935,36.105,3.62c6.945-1.945,5.176,6.335,3.729,12.16
			c-17.38,5.54-29.971,21.811-29.971,41.027c0,23.78,19.278,43.059,43.059,43.059c15.922,0,29.816-8.648,37.266-21.498
			c0.742-1.254,1.858-0.949,2.316-0.549c4.179,3.662,9.854,5.29,15.595,5.351c4.671,0.05,104.015,0,104.015,0
			c6.932-0.247,7.245-5.864,7.245-6.859v-21.74c0.662-0.993,2.318-4.19,3.762-4.19c0.392,0.031,0.944,0.202,1.125,0.258
			c5.573,2.12,9.433-1.526,9.283-7.139l-0.004-0.191c0-3.207-0.549-6.108-3.647-7.72c-4.143-2.155-9.694-1.803-13.604,0.657
			c-1.06-0.819-4.51-1.475-4.51-1.475c-4.118-0.267-8.924,1.344-8.924,6.226c0,0,0.074,3.363,0.047,4.066
			c-0.032,0.852-1.279,1.866-2.102,0.134c-2.097-4.417-5.66-8.01-10.508-9.752c-2.303-0.827-4.753-1.255-7.214-1.297
			c-1.786-0.03-2.58-2.601-1.654-4.466c1.845-3.719,2.768-8.087,4.317-12.114c0.679-1.776,1.557-1.041,1.857-0.283
			c1.086,2.744,1.988,6.793,2.429,7.79c1.636,3.71,5.48,4.423,8.937,3.254c3.986-1.348,7.837-5.439,9.353-9.32
			c1-2.559,1.738-5.216,2.936-7.688c0.676-1.395,1.266-1.114,2.064-0.613c2.901,1.818,9.252,6.856,9.903,7.338
			c8.087,5.97,16.748,11.321,26.555,13.863c16.06,4.162,30.727-5.365,39.067-18.536C350.34,109.772,349.396,90.595,338.207,76.519z
			 M115.447,151.568c-2.909-6.303-14.914-8.091-18.216-1.57c-0.233,0.46-0.879,0.414-1.002-0.104
			c-1.779-7.482,1.181-10.874,4.772-12.283c0.012-0.003,0.025-0.005,0.038-0.008c0.472-0.117,0.932-0.271,1.385-0.445
			c1.94-0.489,3.909-0.507,5.307-0.355c4.433,0.481,13.482,5.624,8.68,14.974C116.246,152.098,115.621,151.947,115.447,151.568z
			 M92.582,174.713c-8.878-15.088,14.176-28.29,22.08-11.929c0.175,0.363-0.25,0.881-0.626,0.764
			c-9.371-2.904-18.55-1.495-20.657,10.789C93.305,174.767,92.768,175.03,92.582,174.713z M77.916,167.929
			c-6.068-4.273-5.25-11.002-2.68-15.674c2.648-4.815,15.759-8.696,19.792,1.699c0.142,0.365-0.216,0.831-0.516,0.692
			c-9.942-4.574-17.519,6.226-15.848,12.686C78.792,167.834,78.32,168.214,77.916,167.929z M95.236,187.888
			c-7.069,8.362-17.674,3.848-20.846-0.881c-3.185-4.75-2.234-18.038,9.198-16.659c0.367,0.044,0.47,0.583,0.211,0.924
			c-2.736,3.6-0.049,16.771,10.992,15.808C95.182,187.046,95.493,187.584,95.236,187.888z M98.218,176.483
			c9.226,1.89,14.579-2.287,16.954-9.434c0.069-0.206,0.571-0.135,0.734,0.119c5.556,8.654-6.31,23.848-17.958,10.154
			C97.652,176.974,97.838,176.405,98.218,176.483z M115.064,188.222c1.285,12.622-5.387,12.364-10.904,11.645
			c-5.475-0.716-9.29-5.924-4.655-12.281c0.217-0.297,0.918-0.097,1.084,0.273c2.105,4.685,10.418,5.994,13.701,0.104
			C114.51,187.569,115.015,187.729,115.064,188.222z M125.337,169.663c8.29,1.642,7.346,12.078,4.108,14.822
			c-3.098,2.628-7.954,4.282-12.101,0.663c-0.385-0.336-0.107-0.922,0.439-0.935c5.021-0.111,11.413-7.013,7.193-13.579
			C124.731,170.253,124.955,169.588,125.337,169.663z M131.49,170.002c-0.32,0.187-0.782-0.277-0.71-0.68
			c1.382-7.798-8.095-13.603-12.978-11.387c-0.44,0.2-0.843-0.243-0.648-0.719c4.064-9.921,13.045-7.079,15.897-4.464
			C135.938,155.399,140.451,164.781,131.49,170.002z M154.179,146.39c-3.098,0.719-6.036,2.072-8.523,4.015
			c-0.438,0.342-1.373,0.783-1.808-0.125c-2.246-4.822-5.36-9.154-9.139-12.805c-1.414-1.521-0.38-2.993,0.209-3.605
			c1.995-2.074,10.667-15.144,12.308-12.789c1.598,2.292,1.243,7.06,1.689,9.757c0.517,3.116,1.889,6.113,3.424,8.836
			c0.678,1.204,1.439,2.236,2.268,3.11C155.915,144.163,155.753,146.024,154.179,146.39z M297.062,80.443
			c6.393-4.12,9.112,1.329,9.743,3.925c0.632,2.595-0.401,8.697-6.522,8.066c-0.288-0.03-0.549-0.395-0.392-0.542
			c3.067-2.871,1.699-10.07-2.614-10.772C296.916,81.063,296.762,80.637,297.062,80.443z M276.151,90.876
			c-2.135,2.162-1.211,6.982,2.644,7.75c0.322,0.064,0.461,0.397,0.191,0.526c-6.937,3.337-8.166-0.522-8.893-3.818
			c-0.711-3.229,1.409-6.438,5.872-5.235C276.234,90.17,276.342,90.682,276.151,90.876z M291.718,101.397
			c0.573,4.901-5.436,6.452-7.638,5.189c-2.175-1.247-4.151-3.743-2.805-6.936c0.099-0.234,0.432-0.099,0.546,0.202
			c1.073,2.841,6.313,5.083,9.206,1.373C291.207,100.995,291.683,101.099,291.718,101.397z M290.978,95.528
			c-3.943,4.582-14.55,0.955-9.361-8.286c0.153-0.274,0.582-0.165,0.634,0.154c0.86,5.235,4.075,7.397,8.31,7.457
			C290.862,94.857,291.161,95.314,290.978,95.528z M292.838,93.3c-0.316-5.793-2.971-10.58-10.137-9.426
			c-0.345,0.056-0.634-0.355-0.409-0.607c6.749-7.579,18.486,2.406,11.354,10.166C293.408,93.691,292.854,93.598,292.838,93.3z
			 M293.194,104.185c4.529-0.948,5.843-7.271,3.708-9.635c-0.222-0.246-0.117-0.611,0.192-0.598
			c6.505,0.268,6.736,5.982,5.831,8.149c-0.888,2.13-5.082,6.443-9.743,2.996C292.872,104.866,292.892,104.248,293.194,104.185z
			 M282.999,73.448c1.295-4.061,5.179-4.922,8.293-4.432c3.251,0.512,8.088,7.032,3.294,11.474c-0.231,0.214-0.691,0.108-0.675-0.14
			c0.418-6.348-6.863-8.443-10.287-6.416C283.272,74.144,282.876,73.833,282.999,73.448z M274.815,87.667
			c-5.944-2.408-5.537-9.224-3.523-11.968c2.014-2.743,9.54-4.91,11.304,1.439c0.092,0.329-0.446,0.618-0.94,0.588
			c-2.872-0.17-8.668,3.794-6.312,9.37C275.469,87.396,275.124,87.793,274.815,87.667z M328.771,111.119
			c-0.545,5.639-3.198,11.624-9.097,13.611c-6.594,2.222-14.578-1.611-20.197-4.666c-1.947-1.059-3.809-2.245-5.621-3.504
			c-1.252-0.941-0.544-1.729,0.216-1.906c0.992-0.231,1.981-0.523,2.963-0.877c6.357-2.297,11.271-6.808,14.201-12.346
			c0.808-1.628,1.459-0.6,1.867-0.179c3.313,3.425,8.17,4.469,12.732,3.807C330.215,104.423,329.027,108.462,328.771,111.119z"/>
		<path fill="none" stroke="#000000" d="M110.123,46.778l-0.068,49.979 M123.248,96.758c10.295,0.635,13.126-9.378,13.126-16.72
			s-2.316-14.799-9.623-15.719 M176.009,78.364c0.208-6.5-1.991-14.916-11.934-14.916 M150.658,79.008
			c0,8.257,0.99,18.269,14.007,18.269 M207.179,65.125c-5.175-3.619-16.628-1.033-16.628,5.782 M189.142,94.962
			c15.964,6.561,19.296-3.165,19.296-6.821c0-3.656-4.293-5.349-9.574-7.947 M224.364,54.481c0,0,0,21.823,0,31.346
			s3.186,12.853,11.389,10.416 M227.098,64.318l8.786-0.092 M171.507,169.061c0-6.276-1.341-15.728-12.188-15.728 M145.728,165.175
			c-0.88,7.017-1.17,21.726,13.592,21.726c7.298,0,11.422-1.929,11.422-1.929 M195.057,185.429l-11.136-31.495 M201.708,176.479
			l7.687-22.555 M246.361,169.061c0-5.42-0.524-15.728-11.939-15.728 M221.751,162.5c-2.26,6.362-3.454,24.4,12.671,24.4
			c5.661,0,10.152-0.886,11.422-1.929 M262.685,154.297v31.81 M277.417,154.297c-2.589-0.912-6.723,0.771-7.589,2.018"/>
	</g>
	<path fill="#6FC49E" d="M337.44,77.16c-3.65-4.05-8.41-6.38-13.07-6.38c-4.01,0-7.67,1.71-10.59,4.96
		c-0.28,0.31-0.55,0.63-0.82,0.99c-0.33,0.43-0.91,0.68-1.56,0.68c-0.67,0-1.21-0.27-1.49-0.74c-4.46-7.76-12.8-12.58-21.76-12.58
		c-2.9,0-5.77,0.5-8.53,1.5c-6.31,2.28-11.35,6.88-14.2,12.96c-2.85,6.07-3.17,12.89-0.89,19.2c0.38,1.04,0.83,2.06,1.34,3.04
		c0.03,0.07,0.09,0.16,0.14,0.25c0.3,0.47,0.79,1.26,0.46,2.11c-0.23,0.58-0.77,0.99-1.61,1.21c-3.57,0.95-6.95,2.9-10.04,5.78
		c-0.41,0.39-0.82,0.58-1.26,0.58c-0.76,0-1.2-0.56-1.56-1.01l-0.06-0.07c-0.13-0.17-0.33-0.36-0.57-0.59
		c-0.21-0.2-0.43-0.42-0.66-0.66c-1.26-1.34-3-2.29-5.46-2.98l-0.45-0.12c-2.06-0.58-3.2-0.89-3.73-1.9
		c-0.57-1.07-0.15-2.3,0.77-4.98l0.02-0.05c0.29-0.87,0.44-1.84,0.44-2.9v-0.1c0.01-1.97-0.65-3.76-1.8-4.92
		c-0.88-0.88-1.99-1.34-3.23-1.34c-0.82,0-1.68,0.2-2.57,0.6l-0.07,0.03c-0.54,0.21-0.98,0.33-1.37,0.38
		c-0.04,0.01-0.09,0.01-0.14,0.01c-0.47,0-0.88-0.32-0.98-0.79c-0.13-0.62-0.2-1.48-0.2-2.54V72.18c0-0.26,0.11-0.52,0.3-0.71
		c0.19-0.18,0.44-0.29,0.7-0.29c0.01,0,0.01,0,0.02,0c0.26,0.01,0.53,0.01,0.8,0.01c4.76,0,7.51-0.75,8.42-4.68
		c0.57-2.45,0.03-5.26-1.34-6.98c-0.97-1.22-2.27-1.84-3.85-1.84h-4.05c-0.55,0-1-0.45-1-1v-1.87c0-4.42-2.27-6.66-6.94-6.86
		c-0.15,0-0.3-0.01-0.45-0.01c-1.86,0-3.67,0.49-4.95,1.35c-1.44,0.97-2.18,2.32-2.18,4.02v3.39c0,0.52-0.4,0.96-0.93,1
		c-0.94,0.06-2.72,0.41-3.98,2.02c-0.19,0.26-0.49,0.39-0.79,0.39c-0.2,0-0.41-0.06-0.59-0.2c-1.08-0.8-2.27-1.25-3.06-1.55
		l-0.06-0.03c-2.47-0.94-5.21-1.43-7.9-1.43c-3.73,0-7.21,0.93-10.06,2.69c-2.4,1.49-4.25,3.52-5.34,5.88
		c-0.48,1.05-1.29,1.2-1.73,1.2c-1.54,0-3.11-1.84-4.85-4.07c-0.26-0.34-0.59-0.75-0.69-0.84c-3.39-3.18-8.01-4.92-13-4.92
		c-7.79,0-15.02,4.1-18.42,10.44c-0.67,1.25-1.5,1.52-2.08,1.52c-1.52,0-2.61-1.7-3.6-3.45c-0.1-0.17-0.18-0.33-0.25-0.44
		c-1.4-2.25-3.29-4.16-5.48-5.53c-2.62-1.63-5.74-2.49-9.03-2.49c-2.24,0-4.5,0.42-6.53,1.22c-0.12,0.05-0.24,0.07-0.37,0.07
		c-0.2,0-0.39-0.06-0.56-0.17c-0.27-0.19-0.44-0.5-0.44-0.83v-10.8v-0.14c0.02-1.55-0.49-2.86-1.53-3.91
		c-1.37-1.39-3.62-2.21-6.01-2.21c-1.9,0-3.65,0.5-4.91,1.42c-1.37,1-2.07,2.37-2.07,4.08v0.25c-0.01,32.84-0.01,45.31,0,49.89
		c0,0.72-0.22,1.32-0.63,1.74c-0.27,0.27-0.77,0.6-1.57,0.6c0,0-0.05,0-0.06,0c-0.17-0.01-0.34-0.01-0.51-0.01
		c-4.55,0-9.2,1.17-13.7,2.31l-1.49,0.37c-3.4,0.84-6.28,1.24-9.08,1.24c-0.38,0-0.76-0.01-1.14-0.02c-1.46-0.06-4.65-0.83-6.85-2.3
		c-0.02-0.02-0.04-0.03-0.06-0.05c-0.97-0.75-1.44-1.58-1.39-2.45c0.07-1.32,1.3-2.08,1.7-2.33c1.41-0.87,2.57-2.09,3.31-2.97
		c3.11-3.7,1.31-7.64-0.75-10.29c-1.89-2.44-4.34-3.68-7.3-3.68c-5.11,0-10.63,3.65-13.82,7.26c-6.86,7.76-3.8,18.82,2.78,25.75
		c4.17,4.39,9.67,6.53,16.81,6.53c6.09,0,12.39-1.53,18.3-3.19c0.77-0.22,1.49-0.33,2.12-0.33c1.68,0,2.63,0.77,3.13,1.41
		c1.94,2.48,0.87,7.64-0.28,12.29c-0.09,0.33-0.34,0.6-0.67,0.71c-17.51,5.58-29.27,21.68-29.27,40.07
		c0,23.19,18.86,42.06,42.06,42.06c14.94,0,28.89-8.05,36.4-21c0.72-1.22,1.7-1.4,2.22-1.4c0.59,0,1.19,0.23,1.62,0.6
		c3.68,3.23,8.99,5.04,14.94,5.1c1.38,0.02,11.14,0.03,29.04,0.03c30.81,0,74.97-0.03,74.97-0.03c5.79-0.2,6.24-4.53,6.24-5.86
		v-21.74c0-0.19,0.06-0.39,0.17-0.55c0.1-0.16,0.23-0.37,0.39-0.62c1.28-2.12,2.57-4.02,4.2-4.02c0.03,0,0.06,0.01,0.08,0.01
		c0.45,0.03,0.99,0.19,1.35,0.3c0.02,0,0.04,0.01,0.05,0.02c0.96,0.36,1.87,0.54,2.72,0.54c1.37,0,2.57-0.49,3.47-1.41
		c1.18-1.21,1.8-3.1,1.74-5.31v-0.19c0-3.16-0.53-5.52-3.11-6.86c-1.65-0.86-3.6-1.31-5.65-1.31c-2.51,0-4.99,0.68-6.96,1.93
		c-0.16,0.1-0.35,0.15-0.53,0.15c-0.22,0-0.44-0.07-0.61-0.21c-0.59-0.46-2.69-1.01-4.03-1.27c-0.24-0.02-0.49-0.02-0.74-0.02
		c-1.94,0-3.69,0.44-4.94,1.26c-1.41,0.91-2.12,2.25-2.12,3.99c0.01,0.12,0.08,3.38,0.05,4.1c-0.04,0.97-0.87,2.05-2.01,2.05
		c-0.48,0-1.37-0.2-2-1.52c-2.09-4.41-5.62-7.69-9.94-9.24c-2.17-0.78-4.49-1.2-6.89-1.24c-0.98-0.02-1.86-0.55-2.42-1.46
		c-0.76-1.26-0.81-3.05-0.11-4.45c1.08-2.18,1.82-4.57,2.62-7.1c0.51-1.63,1.03-3.31,1.66-4.93c0.54-1.44,1.34-1.74,1.91-1.74
		c0.91,0,1.53,0.75,1.8,1.45c0.66,1.65,1.23,3.72,1.7,5.38c0.29,1.04,0.56,2.03,0.72,2.37c1.22,2.77,3.67,3.18,5.02,3.18
		c0.87,0,1.77-0.16,2.68-0.47c3.5-1.18,7.26-4.93,8.74-8.73c0.36-0.91,0.68-1.85,1-2.76c0.58-1.66,1.18-3.37,1.97-5
		c0.19-0.39,0.77-1.59,1.98-1.59c0.57,0,1.06,0.28,1.51,0.56c2.39,1.5,7.05,5.12,9.05,6.67c0.47,0.37,0.8,0.62,0.92,0.71
		c6.71,4.96,15.76,10.99,26.21,13.7c2.45,0.64,4.94,0.96,7.41,0.96c11.58,0,23.01-7.12,30.56-19.06
		C349.33,109.5,348.38,90.94,337.44,77.16z M100.64,136.68c0.04-0.02,0.08-0.03,0.13-0.04c0.01,0,0.05-0.01,0.06-0.01
		c0.36-0.09,0.77-0.23,1.23-0.4c0.04-0.02,0.08-0.03,0.12-0.04c1.22-0.31,2.58-0.47,3.94-0.47c0.59,0,1.17,0.03,1.72,0.09
		c3.26,0.35,7.82,2.74,9.82,6.46c1.11,2.06,1.95,5.46-0.36,9.96c-0.03,0.06-0.06,0.11-0.1,0.16c-0.25,0.35-0.66,0.56-1.12,0.56
		c-0.66,0-1.28-0.39-1.54-0.96c-1.36-2.95-5.36-5.1-9.51-5.1c-3.24,0-5.76,1.3-6.91,3.56c-0.27,0.53-0.8,0.87-1.38,0.87
		c-0.62,0-1.17-0.38-1.4-0.94c-0.03-0.08-0.06-0.16-0.08-0.25C93.11,141.11,97.71,137.83,100.64,136.68z M115.56,162.35
		c0.22,0.45,0.18,1-0.11,1.46s-0.79,0.75-1.3,0.75c-0.14,0-0.28-0.02-0.41-0.06c-2.65-0.82-5.11-1.23-7.32-1.23
		c-6.72,0-10.78,3.78-12.06,11.24c-0.13,0.75-0.8,1.34-1.53,1.34c-0.46,0-0.88-0.23-1.11-0.63c-2.71-4.6-2.86-9.46-0.44-13.7
		c1.26-2.2,3.11-4.02,5.26-5.28c2.16-1.27,4.65-1.99,7.17-1.99c4.09,0,7.72,1.95,10.27,5.44
		C114.57,160.5,115.1,161.39,115.56,162.35z M96.94,176.27c0.23-0.49,0.69-0.79,1.21-0.79c0.09,0,0.18,0.01,0.27,0.02
		c1.4,0.29,2.75,0.44,3.99,0.44c5.81,0,9.78-3.1,11.81-9.21c0.17-0.48,0.63-0.8,1.19-0.8c0.54,0,1.06,0.27,1.34,0.7
		c2.08,3.24,2.09,7.58,0.04,11.34c-2,3.66-5.42,5.84-9.15,5.84c-2.5,0-6.35-1.01-10.45-5.84C96.78,177.49,96.69,176.83,96.94,176.27
		z M74.36,151.77c1.66-3.03,6.55-5.4,11.11-5.4c2.33,0,6.19,0.62,8.86,4.22c0.62,0.83,1.17,1.82,1.63,3
		c0.18,0.47,0.11,1.01-0.18,1.44c-0.28,0.4-0.71,0.64-1.16,0.64c-0.18,0-0.36-0.04-0.53-0.11c-1.45-0.67-2.9-1.01-4.32-1.01
		c-2.94,0-5.8,1.52-7.84,4.16c-2.03,2.62-2.94,5.91-2.3,8.37c0.13,0.49,0.03,0.99-0.27,1.37c-0.14,0.19-0.32,0.33-0.51,0.43
		c-0.2,0.1-0.41,0.15-0.64,0.15c-0.31,0-0.61-0.1-0.87-0.28C70.79,164.13,71.64,156.72,74.36,151.77z M85.62,193.55
		c-5.28,0-10.06-3.01-12.06-5.99c-1.96-2.92-2.61-8.83-0.23-13.28c0.95-1.79,2.67-3.83,5.71-4.65c0.87-0.24,1.85-0.38,2.95-0.38
		c0.55,0,1.13,0.03,1.72,0.11c0.49,0.05,0.91,0.37,1.11,0.84c0.22,0.54,0.14,1.2-0.22,1.68c-1.12,1.47-1.17,5.35,0.54,8.79
		c1.01,2.04,3.46,5.46,8.52,5.46c0.34,0,0.69-0.02,1.04-0.05c0.03,0,0.1,0,0.13,0c0.57,0,1.1,0.35,1.35,0.9
		c0.25,0.53,0.18,1.13-0.18,1.55C93.22,191.82,89.64,193.55,85.62,193.55z M113.98,198.8c-1.42,1.58-3.5,2.34-6.34,2.34
		c-1.25,0-2.53-0.14-3.61-0.28c-3.27-0.43-5.9-2.25-7.02-4.88c-0.97-2.25-0.71-4.85,0.7-7.43c0.29-0.52,0.61-1.04,0.99-1.55
		c0.25-0.36,0.67-0.56,1.15-0.56c0.58,0,1.34,0.32,1.65,1.01c0.91,2.03,3.4,3.44,6.04,3.44c2.53,0,4.67-1.24,5.88-3.41
		c0.25-0.46,0.71-0.74,1.21-0.74c0.73,0,1.35,0.59,1.43,1.38C116.58,193.19,115.9,196.68,113.98,198.8z M130.09,185.25
		c-1.31,1.11-4.03,2.99-7.42,2.99c-2.2,0-4.21-0.79-5.98-2.34c-0.09-0.07-0.16-0.15-0.22-0.24c-0.31-0.4-0.38-0.91-0.21-1.39
		c0.22-0.63,0.81-1.04,1.5-1.06c2.47-0.05,5.28-2.01,6.69-4.65c0.75-1.41,1.7-4.24-0.31-7.38c-0.33-0.52-0.35-1.23-0.05-1.78
		c0.25-0.47,0.7-0.74,1.19-0.74c0.08,0,0.16,0.01,0.25,0.02c1.97,0.39,3.6,1.27,4.81,2.57c0.99,1.04,1.7,2.36,2.1,3.9
		C133.39,178.81,132.34,183.34,130.09,185.25z M137.72,162.73c-0.36,3.35-2.34,6.16-5.73,8.14c-0.2,0.11-0.43,0.17-0.66,0.17
		c-0.21,0-0.43-0.05-0.63-0.15c-0.19-0.09-0.38-0.23-0.53-0.42c-0.32-0.38-0.46-0.86-0.38-1.32c0.54-3.02-0.78-5.35-1.98-6.78
		c-1.96-2.34-5.02-3.91-7.62-3.91c-0.75,0-1.41,0.13-1.98,0.39c-0.2,0.09-0.41,0.13-0.63,0.13c-0.42,0-0.82-0.18-1.11-0.5
		c-0.04-0.05-0.07-0.1-0.11-0.15c-0.29-0.43-0.34-0.99-0.13-1.49c0.76-1.86,1.68-3.27,2.66-4.34c2.51-2.73,5.45-3.24,7.29-3.24
		c3.14,0,6.05,1.38,7.55,2.75C135.54,153.68,138.22,158.05,137.72,162.73z M156.37,145.58c-0.28,0.91-0.99,1.56-1.97,1.78
		c-3,0.7-5.82,2.03-8.13,3.83c-0.24,0.19-0.88,0.63-1.64,0.63c-0.73,0-1.35-0.41-1.68-1.11c-2.19-4.69-5.19-8.9-8.94-12.52
		c-0.01-0.01-0.02-0.02-0.03-0.03c-1.66-1.78-0.98-3.74,0.22-4.98c0.48-0.5,1.46-1.81,2.6-3.31c5.16-6.83,7.95-10.07,9.89-10.07
		c0.55,0,1.04,0.25,1.36,0.71c1.27,1.82,1.44,4.75,1.6,7.34c0.06,1.05,0.12,2.05,0.25,2.82c0.42,2.56,1.48,5.26,3.31,8.51
		c0.62,1.11,1.34,2.09,2.12,2.92C156.31,143.12,156.7,144.46,156.37,145.58z M270.49,75.11c1.32-1.8,4.19-3.11,6.82-3.11
		c1.95,0,3.57,0.7,4.72,1.98c-0.08-0.27-0.07-0.56,0.02-0.84c1.06-3.33,3.86-5.25,7.67-5.25c0.57,0,1.15,0.05,1.73,0.14
		c2.37,0.37,4.92,2.96,5.82,5.89c0.61,2,0.39,3.93-0.6,5.58c1.65-1.03,3.21-1.55,4.64-1.55c3.66,0,5.77,3.33,6.47,6.18
		c0.47,1.93,0.11,4.95-1.49,6.98c-1.22,1.55-3,2.37-5.15,2.37c-0.31,0-0.63-0.02-0.96-0.05c-0.07-0.01-0.14-0.02-0.21-0.04
		c-0.48-0.13-0.9-0.51-1.06-0.98c-0.15-0.45-0.04-0.93,0.3-1.25c1.27-1.19,1.7-3.57,1.02-5.78c-0.55-1.82-1.72-3.04-3.12-3.27
		c-0.58-0.1-1.06-0.55-1.18-1.11c-0.03-0.15-0.03-0.3-0.02-0.44c-0.2,0.23-0.41,0.45-0.64,0.66c-0.27,0.25-0.62,0.39-1,0.39
		c-0.4,0-0.78-0.16-1.03-0.43c-0.23-0.25-0.35-0.56-0.33-0.89c0.11-1.64-0.35-3.02-1.37-4.1c-1.15-1.24-3.02-2-4.88-2
		c-0.97,0-1.87,0.21-2.53,0.6c-0.22,0.14-0.48,0.21-0.74,0.21c-0.26,0-0.52-0.07-0.74-0.21c0.39,0.61,0.69,1.3,0.91,2.08
		c0.11,0.39,0.02,0.81-0.23,1.14c-0.34,0.44-0.95,0.72-1.6,0.72c-0.05,0-0.09,0-0.13,0c-0.04-0.01-0.08-0.01-0.13-0.01
		c-1.35,0-3.57,1.14-4.79,2.98c-1.03,1.55-1.17,3.23-0.42,5.01c0.18,0.42,0.13,0.92-0.14,1.32c-0.27,0.41-0.71,0.66-1.18,0.66
		c-0.08,0-0.17-0.01-0.25-0.02c-0.09-0.02-0.17-0.05-0.25-0.08c-3.31-1.33-4.61-3.78-5.13-5.6
		C268.55,80.32,269.04,77.08,270.49,75.11z M291.84,93.35c-0.22-3.94-1.62-8.65-7.1-8.65c-0.59,0-1.22,0.05-1.88,0.16
		c-0.07,0.01-0.15,0.02-0.22,0.02c-0.56,0-1.08-0.33-1.31-0.85c-0.22-0.49-0.13-1.04,0.21-1.43c1.77-1.98,3.99-3.03,6.41-3.03
		c3.44,0,6.83,2.24,8.24,5.45c1.34,3.06,0.68,6.38-1.81,9.09c-0.28,0.3-0.68,0.47-1.12,0.47C292.49,94.58,291.88,94.05,291.84,93.35
		z M291.74,96.18c-1.28,1.48-3.23,2.33-5.37,2.33c-2.67,0-5.09-1.29-6.3-3.36c-1.33-2.27-1.09-5.25,0.67-8.4
		c0.24-0.41,0.66-0.66,1.14-0.66c0.68,0,1.25,0.48,1.36,1.14c0.71,4.34,3.18,6.56,7.33,6.62c0.55,0.01,1.09,0.38,1.33,0.93
		C292.12,95.26,292.06,95.8,291.74,96.18z M279.42,100.05c-1.93,0.93-3.54,1.38-4.93,1.38c-4.07,0-4.95-3.97-5.37-5.88
		c-0.41-1.83-0.04-3.61,0.99-4.89c0.94-1.18,2.38-1.82,4.04-1.82c0.17,0,0.34,0.01,0.52,0.02c0.5,0.04,1.02,0.13,1.56,0.27
		c0.46,0.13,0.82,0.51,0.96,1.02c0.14,0.53,0.02,1.08-0.33,1.43c-0.78,0.8-1.04,2.21-0.65,3.51c0.42,1.35,1.43,2.29,2.78,2.55
		c0.6,0.12,1.06,0.59,1.13,1.16c0.02,0.17,0.01,0.34-0.04,0.5C279.98,99.62,279.75,99.89,279.42,100.05z M291.38,105.71
		c-1.51,1.69-3.78,2.3-5.41,2.3c-0.93,0-1.76-0.19-2.39-0.56c-2.45-1.4-4.77-4.36-3.27-8.07c0.01-0.04,0.02-0.08,0.04-0.12
		c0.19-0.45,0.61-0.73,1.1-0.73c0.56,0,1.09,0.39,1.31,0.97c0.48,1.29,2.36,2.67,4.37,2.67c0.86,0,2.1-0.27,3.11-1.56
		c0.25-0.32,0.64-0.51,1.07-0.51c0.72,0,1.32,0.51,1.4,1.18c0.09,0.73,0.05,1.42-0.1,2.08c0.11-0.07,0.24-0.13,0.38-0.15
		c2.35-0.5,3.29-2.65,3.58-3.55c0.56-1.72,0.4-3.55-0.41-4.44c-0.38-0.42-0.48-1.01-0.26-1.51c0.21-0.47,0.66-0.76,1.18-0.76
		c0.01,0,0.04,0,0.06,0c1.1,0.04,2.02,0.23,2.8,0.51c1.71,0.62,2.72,1.66,3.3,2.57c1.31,2.06,1.3,4.81,0.61,6.46
		c-0.83,1.97-3.64,4.9-7.07,4.9c-1.45,0-2.86-0.5-4.19-1.49c-0.32-0.24-0.54-0.61-0.61-1.01
		C291.81,105.17,291.61,105.45,291.38,105.71z M329.9,110.15c-0.05,0.37-0.1,0.73-0.13,1.06c-0.7,7.24-4.36,12.64-9.78,14.47
		c-1.4,0.47-2.94,0.71-4.57,0.71c-5.64,0-11.46-2.75-16.42-5.45c-1.82-0.98-3.69-2.15-5.71-3.56c-1.16-0.87-1.17-1.74-1.08-2.18
		c0.15-0.73,0.79-1.32,1.64-1.52c0.95-0.22,1.91-0.51,2.85-0.84c5.88-2.13,10.73-6.34,13.65-11.88c0.47-0.93,1.07-1.42,1.79-1.42
		c0.77,0,1.27,0.56,1.57,0.9c0.04,0.04,0.08,0.08,0.11,0.12c2.3,2.38,5.65,3.69,9.43,3.69c0.81,0,1.63-0.06,2.44-0.18
		c0.35-0.05,0.69-0.08,1-0.08c1.13,0,2,0.34,2.59,1.02C330.41,106.3,330.14,108.34,329.9,110.15z"/>
	<path fill="#69BA96" d="M163.953,150.346c-1.514-0.348-3.073-0.524-4.634-0.524c-4.684,0-8.954,1.562-12.024,4.398
		c-4.865,4.495-5.947,11.087-5.998,15.826c-0.077,7.105,1.688,12.472,5.247,15.95c3.131,3.059,7.752,4.676,13.365,4.676
		c1.013,0,2.063-0.053,3.121-0.157c3.284-0.324,6.129-0.998,8.456-2.004c1.335-0.579,2.55-1.265,2.763-3.276
		c0.124-1.198,0.347-3.354-0.989-4.206c-0.327-0.206-0.703-0.309-1.123-0.309c-0.853,0-1.73,0.43-2.436,0.776
		c-0.227,0.111-0.441,0.216-0.585,0.271c-1.23,0.467-2.404,0.826-3.587,1.097c-1.645,0.377-3.275,0.568-4.846,0.568
		c-1.168,0-2.293-0.108-3.342-0.321c-2.463-0.5-4.468-1.83-5.646-3.743c-1.032-1.679-1.58-3.902-1.674-6.796h22.098
		c2.193,0,3.666-1.537,3.666-3.825c0-2.062-0.067-4.277-0.558-6.514C173.884,156.104,169.669,151.66,163.953,150.346z
		 M150.089,165.824c0.294-2.715,1.32-5.051,2.909-6.606c1.537-1.504,3.624-2.299,6.034-2.299c0.355,0,0.719,0.018,1.083,0.052
		c1.689,0.161,4.019,0.817,5.525,3.035c1.009,1.483,1.554,3.439,1.623,5.818H150.089z M281.381,155.231
		c0.033,1.227,0.004,2.487-0.727,3.237c-0.335,0.345-0.771,0.527-1.26,0.527c-0.606,0-1.141-0.213-1.614-0.401
		c-0.159-0.064-0.316-0.127-0.467-0.174c-0.54-0.167-1.25-0.366-1.95-0.424c-0.125-0.01-0.248-0.015-0.369-0.015
		c-2.367,0-4.171,1.967-5.479,3.682c-0.694,0.908-1.411,1.943-2.255,3.254l-0.032,0.05c-0.006,0.01-0.013,0.02-0.019,0.029
		c0,0.007,0,0.016,0,0.024v22.913c0,2.078-2.561,2.17-3.401,2.2l-0.09,0.003l-0.356,0.017c-0.32,0.016-0.683,0.034-1.055,0.034
		c-0.885,0-2.157-0.088-2.992-0.847c-0.625-0.571-0.6-1.412-0.585-1.915c0.002-0.065,0.004-0.128,0.004-0.187v-34.62
		c0-0.892,0.52-1.606,1.427-1.96c0.518-0.202,1.178-0.3,2.019-0.3c0.45,0,0.88,0.028,1.194,0.048l0.285,0.017
		c2.416,0.125,2.922,1.5,2.922,2.631v1.661c1.541-1.899,3.72-4.016,6.556-4.636c0.697-0.153,1.432-0.23,2.185-0.23
		c1.211,0,2.456,0.195,3.7,0.579c0.67,0.207,1.918,0.591,2.232,2.058c0.145,0.679,0.134,1.382,0.125,2.002
		c-0.002,0.149-0.005,0.298-0.005,0.444C281.375,155.017,281.378,155.118,281.381,155.231z M214.199,152.542
		c0,0.476,0,1.363-11.736,33.652c-0.356,0.979-0.596,1.64-0.685,1.887c-0.694,1.905-2.72,1.992-3.935,2.043
		c-0.573,0.024-1.166,0.05-1.777,0.05c-1.142,0-2.054-0.092-2.872-0.291c-1.491-0.364-2.039-1.455-2.321-2.244
		c-0.595-1.661-10.608-29.64-11.857-33.132l-0.036-0.108c-0.268-0.793-0.633-1.879-0.133-2.805c0.187-0.345,0.574-0.799,1.36-1.004
		c0.608-0.159,1.313-0.236,2.154-0.236c0.615,0,1.236,0.041,1.783,0.076l0.253,0.017c1.062,0.068,2.547,0.375,3.187,2.244
		c0.487,1.422,6.646,19.424,9.049,26.444l9.011-26.749c0.467-1.917,2.641-1.954,3.691-1.972l0.161-0.003
		c0.105-0.002,0.235-0.009,0.383-0.017c0.29-0.016,0.637-0.033,0.999-0.033C213.767,150.36,214.199,151.727,214.199,152.542z
		 M239.056,150.346c-1.514-0.348-3.073-0.524-4.634-0.524c-4.684,0-8.954,1.562-12.024,4.398
		c-4.865,4.495-5.947,11.087-5.998,15.826c-0.077,7.105,1.688,12.472,5.247,15.95c3.131,3.059,7.752,4.676,13.365,4.676
		c1.013,0,2.063-0.053,3.121-0.157c3.284-0.324,6.129-0.998,8.456-2.004c1.335-0.579,2.55-1.264,2.763-3.276
		c0.124-1.199,0.347-3.354-0.99-4.206c-0.327-0.206-0.703-0.309-1.122-0.309c-0.852,0-1.73,0.43-2.436,0.776
		c-0.227,0.111-0.441,0.216-0.585,0.271c-1.23,0.467-2.404,0.826-3.587,1.097c-1.645,0.377-3.275,0.568-4.846,0.568
		c-1.168,0-2.293-0.108-3.342-0.321c-2.463-0.5-4.468-1.83-5.645-3.743c-1.032-1.679-1.58-3.902-1.674-6.796h22.098
		c2.193,0,3.666-1.537,3.666-3.825c0-2.062-0.067-4.277-0.558-6.514C248.986,156.104,244.771,151.66,239.056,150.346z
		 M225.191,165.824c0.294-2.715,1.32-5.051,2.909-6.606c1.537-1.504,3.624-2.299,6.034-2.299c0.355,0,0.719,0.018,1.083,0.052
		c1.689,0.161,4.019,0.817,5.525,3.035c1.009,1.483,1.554,3.439,1.623,5.818H225.191z M334.186,79.938
		c-0.004-0.005-0.009-0.011-0.013-0.016c-2.349-2.823-6.509-5.839-11.138-5.839c-0.722,0-1.436,0.076-2.122,0.228
		c-5.759,1.268-8.387,7.631-8.392,13.007c0,5.534,2.998,10.552,7.46,12.486c1.424,0.618,3.092,0.944,4.824,0.944
		c2.991,0,5.737-0.974,7.544-2.674c0.019-0.005,0.055-0.012,0.105-0.012c0.061,0,0.113,0.01,0.15,0.021
		c2.289,8.647,0.59,18.67-4.245,24.98c-3.354,4.378-8.031,6.692-13.525,6.692c-0.135,0-0.27-0.001-0.406-0.004
		c-12.379-0.296-22.902-7.934-33.483-16.415c-3.851-3.084-8.401-6.375-13.674-6.375c-1.202,0-2.408,0.175-3.586,0.521
		c-4.453,1.31-8.273,4.854-11.658,10.825c-1.867-4.357-4.91-9.518-10.248-9.518c-4.063,0-7.999,2.989-11.726,8.888
		c-0.39-1.208-0.91-2.259-1.575-3.19c-0.006-0.008-0.012-0.016-0.018-0.023c-1.272-1.764-2.828-2.659-4.623-2.66
		c-2.244,0-4.534,1.397-6.75,2.749c-2.115,1.291-4.303,2.626-6.249,2.626c-1.202,0-2.233-0.497-3.233-1.562
		c-1.856-4.736-6.285-7.785-11.337-7.785c-0.455,0-0.917,0.025-1.373,0.075c-4.895,0.534-9.347,4.701-11.931,11.157
		c-2.137,2.726-4.207,5.156-6.326,7.424c-1.158,1.24-2.4,2.499-3.69,3.74c-0.259,0.249-0.53,0.534-0.813,0.831
		c-0.892,0.938-1.902,2.001-2.89,2.209c-0.094,0.02-0.188,0.03-0.281,0.03c-1.39,0-2.914-2.204-3.796-4.092
		c-1.037-2.219-1.42-4.784-1.79-7.265c-0.115-0.768-0.229-1.533-0.361-2.286c-1.618-9.231-5.975-14.111-12.6-14.112
		c-6.613,0-11.973,4.788-16.395,9.833c-0.693-5.246-3.461-10.276-9.477-10.276c-0.586,0-1.2,0.051-1.825,0.151
		c-5.975,0.962-11.14,4.597-14.707,7.847c-0.508-7.004-3.125-10.9-7.793-11.589c-0.77-0.113-1.583-0.171-2.416-0.171
		c-3.67,0-7.394,1.088-10.995,2.14c-2.069,0.604-4.023,1.176-5.921,1.536c-2.233,0.423-4.314,0.638-6.186,0.638
		c-3.679,0-6.708-0.825-9.004-2.451c-2.682-1.9-5.548-6.768-5.424-10.401c0.005,0.004,0.01,0.007,0.015,0.011
		c0.743,0.551,1.745,0.842,2.896,0.842c2.245,0,4.612-1.072,5.756-2.607c0.736-0.987,0.95-2.097,0.619-3.208
		c-0.001-0.002-0.002-0.006-0.003-0.01c-0.003-0.011-0.007-0.023-0.01-0.035c-1.2-3.82-4.021-6.011-7.738-6.011
		c-5.579,0-11.242,4.677-12.119,10.009c-1.51,9.173,5.828,18.28,13.627,21.03c2.394,0.844,4.921,1.254,7.728,1.254
		c4.784,0,9.584-1.212,14.228-2.384c2.392-0.604,4.65-1.174,6.907-1.59c0.463-0.086,0.899-0.13,1.3-0.13
		c1.325,0,2.308,0.469,3.003,1.435c2.592,3.596,0.813,13.171-0.918,18.362c-0.012,0.035-0.021,0.07-0.029,0.106l-0.02,0.091
		c-0.013,0.062-0.021,0.125-0.022,0.189l-0.002,0.093l-0.001,0.076c0,2.049,1.243,3.263,3.326,3.263
		c2.023,0,4.531-1.138,5.637-1.856c0.015-0.01,0.029-0.02,0.044-0.03c0.535-0.339,0.991-0.793,1.343-1.343
		c0.013-0.02,0.033-0.054,0.045-0.075c0.354-0.614,0.731-1.289,1.13-2.001c3.112-5.562,7.814-13.966,14.047-14.659
		c0.128-0.015,0.252-0.021,0.371-0.021c0.66,0,1.149,0.217,1.539,0.682c2.126,2.542,0.633,10.889-0.005,14.454
		c-0.14,0.779-0.25,1.395-0.311,1.842c-0.003,0.026-0.006,0.053-0.008,0.08l-0.012,0.208c-0.001,0.026-0.002,0.053-0.001,0.08
		c0.045,1.96,1.423,3.397,3.287,3.44c0,0,0,0,0,0c0.023,0.002,0.067,0.004,0.09,0.004c0.005,0,0.056,0,0.062,0
		c1.984-0.033,3.742-1.085,5.233-2.068c0.035-0.023,0.068-0.048,0.1-0.075l0.892-0.763c0.048-0.042,0.093-0.088,0.133-0.138
		c1.242-1.563,2.408-3.253,3.535-4.888c2.737-3.968,5.567-8.07,9.662-10.589c1.049-0.648,1.968-0.977,2.731-0.977
		c3.101,0,3.941,5.988,4.497,9.95c0.11,0.788,0.215,1.532,0.326,2.153c0.782,4.357,3.462,14.593,11.438,15.527
		c0.406,0.047,0.821,0.072,1.234,0.072c5.965,0,11.433-4.934,16.029-9.896c1.585,7.072,6.367,14.055,13.67,14.055
		c0.793,0,1.61-0.084,2.428-0.252c8.349-1.715,11.988-11.051,11.898-19.565c0.007-0.054,0.015-0.097,0.022-0.129
		c0.005-0.001,0.011-0.001,0.016-0.002l0.13-0.017c1.758-0.265,3.533-0.906,5.757-2.08c0.647-0.344,1.292-0.784,1.915-1.208
		c0.588-0.401,1.197-0.816,1.787-1.137c0.226-0.124,0.344-0.14,0.379-0.142c0.002,0.014,0.062,0.09,0.12,0.275
		c0.826,2.615,0.787,5.928,0.759,8.348c-0.036,3.034-0.176,6.996-0.938,10.726l-0.072,0.453c-0.008,0.053-0.012,0.105-0.012,0.158
		c0.008,2.892,2.016,3.116,2.632,3.116c2.043,0,4.681-1.912,5.524-2.648c1.963-1.714,2.693-4.339,3.337-6.655
		c0.157-0.563,0.311-1.118,0.479-1.645l0.028-0.088c0.998-3.129,2.03-6.364,3.359-9.397c0.097-0.222,0.198-0.458,0.303-0.704
		c0.894-2.093,2.231-5.226,4.294-5.847c0.296,0.127,0.911,0.802,2.075,3.506c0.133,0.309,0.248,0.574,0.342,0.771
		c1.37,2.846,2.344,5.408,2.979,7.832l0.113,0.446c0.451,1.796,1.131,4.51,3.468,5.086c0.274,0.067,0.556,0.102,0.837,0.102
		c2.567,0,4.617-2.848,5.492-4.064c0.008-0.011,0.026-0.036,0.033-0.048l0.238-0.361c0.01-0.015,0.02-0.03,0.028-0.045
		c0.888-1.519,1.504-3.303,2.157-5.192c1.311-3.793,2.666-7.715,6.299-8.921c0.399-0.132,0.799-0.197,1.223-0.197
		c1.911,0,3.848,1.34,5.557,2.521l0.204,0.141c1.507,1.041,2.994,2.185,4.431,3.292c1.213,0.934,2.468,1.899,3.743,2.81
		c9.896,7.067,20.527,13.968,32.137,13.968c1.395,0,2.792-0.103,4.153-0.305c12.975-1.93,21.509-13.331,25.169-23.356
		C344.963,103.767,342.645,90.174,334.186,79.938z M199.024,136.408c-0.274,0.852-0.526,1.028-0.574,1.028
		c-0.011,0-0.03-0.001-0.06-0.009c-0.009-0.002-0.018-0.004-0.027-0.006c-4.834-1.146-7.176-8.187-6.946-12.626
		c0.191-3.703,0.97-6.513,2.195-7.915c0.167-0.19,0.308-0.217,0.437-0.217c1.229,0,3.435,2.49,3.948,3.654
		C200.112,126.505,200.458,131.918,199.024,136.408z M215.01,67.444c-0.664-0.718-0.917-1.956-0.773-3.785
		c0.151-1.954,1.043-2.944,2.651-2.944h3.561v-7.396c0-0.877,0.509-2.349,3.916-2.349c1.108,0,2.385,0.17,3.035,0.403
		c1.631,0.585,1.568,2.183,1.535,3.041c-0.005,0.139-0.011,0.275-0.011,0.408l0,5.893h8.064c1.081,0,1.922,0.822,2.251,2.199
		c0.382,1.598,0.12,4.214-1.366,4.968c-0.318,0.162-0.788,0.285-3.625,0.285c-1.243,0-2.662-0.023-3.908-0.045
		c-0.511-0.009-0.992-0.017-1.418-0.022v18.689c0,3.873,0.828,5.798,2.686,6.243c0.38,0.092,0.782,0.138,1.196,0.138
		c0.879,0,1.834-0.201,2.92-0.616c0.065-0.025,0.142-0.061,0.225-0.098c0.374-0.168,0.885-0.399,1.431-0.399
		c0.547,0,1.021,0.234,1.335,0.66c0.571,0.777,0.569,1.896,0.567,2.637v0.107c0,1.197,0,3.006-1.491,3.938
		c-1.33,0.832-2.94,1.059-4.476,1.219c-0.615,0.064-1.232,0.096-1.834,0.096c-2.604,0-4.896-0.6-6.629-1.733
		c-3.88-2.538-4.403-7.351-4.403-11.725V68.091h-3.944C215.917,68.091,215.4,67.867,215.01,67.444z M164.665,100.787
		c1.013,0,2.063-0.053,3.121-0.157c3.283-0.324,6.128-0.998,8.456-2.004c1.334-0.578,2.548-1.263,2.763-3.275
		c0.124-1.203,0.345-3.356-0.99-4.206c-0.327-0.206-0.703-0.31-1.123-0.31c-0.853,0-1.731,0.431-2.438,0.776
		c-0.226,0.111-0.44,0.215-0.584,0.271c-1.229,0.466-2.401,0.825-3.586,1.097c-1.645,0.377-3.276,0.568-4.847,0.568
		c-1.168,0-2.292-0.108-3.341-0.321c-2.464-0.5-4.469-1.829-5.646-3.743c-1.032-1.679-1.58-3.903-1.674-6.796h22.097
		c2.193,0,3.667-1.537,3.667-3.825c0-2.061-0.067-4.275-0.558-6.513c-1.343-6.13-5.558-10.574-11.274-11.888
		c-1.514-0.348-3.073-0.524-4.634-0.524c-4.683,0-8.953,1.562-12.023,4.398c-4.865,4.495-5.947,11.087-5.999,15.826
		c-0.078,7.104,1.687,12.471,5.247,15.95C154.431,99.17,159.053,100.787,164.665,100.787z M157.754,69.333
		c1.536-1.504,3.623-2.299,6.035-2.299c0.354,0,0.719,0.018,1.082,0.052c1.688,0.161,4.018,0.817,5.525,3.035
		c1.008,1.483,1.554,3.438,1.623,5.818h-17.174C155.14,73.224,156.166,70.888,157.754,69.333z M185.677,95.53
		c-0.147-0.901-0.314-2.627,0.227-4.07c0.293-0.782,0.918-1.231,1.714-1.231c0.901,0,1.824,0.599,2.497,1.036
		c0.155,0.101,0.29,0.189,0.396,0.248c2.556,1.402,4.958,2.084,7.345,2.084c0.102,0,0.204-0.001,0.307-0.004
		c1.368-0.033,4.66-0.371,5.671-2.792c0.847-2.023,0.104-4.014-1.986-5.322c-1.474-0.919-3.157-1.582-4.938-2.282
		c-3.903-1.536-7.939-3.123-9.758-7.596c-1.095-2.696-0.979-6.086,0.301-8.847c1.172-2.531,3.486-4.565,6.514-5.728
		c1.828-0.702,3.937-1.072,6.099-1.072c0.947,0,1.904,0.069,2.848,0.207c1.472,0.215,2.828,0.556,4.027,1.013l0.053,0.02
		c1.087,0.413,2.908,1.104,3.442,2.544c0.347,0.937,0.432,2.178,0.251,3.691c-0.055,0.447-0.22,1.809-1.428,2.191
		c-0.173,0.055-0.355,0.083-0.54,0.083c-0.697,0-1.279-0.39-1.703-0.675c-0.101-0.067-0.196-0.133-0.284-0.183
		c-2.173-1.229-4.384-1.851-6.574-1.852c-0.304,0-0.611,0.013-0.914,0.038c-1.03,0.084-4.406,0.605-4.609,3.765
		c-0.132,2.066,1.363,3.667,4.708,5.039c0.693,0.285,1.403,0.554,2.117,0.825c2.344,0.89,4.768,1.81,6.841,3.338
		c2.746,2.024,4.258,5.021,4.258,8.439c0,3.218-1.117,6.134-3.145,8.212c-1.897,1.943-4.634,3.265-7.913,3.822
		c-1.221,0.208-2.479,0.313-3.741,0.313c-1.908,0-3.817-0.238-5.677-0.708C189.876,99.517,186.18,98.582,185.677,95.53z
		 M106.185,98.05c0,1.017,0.586,2.229,3.377,2.229c0.215,0,0.417-0.006,0.594-0.011l0.193-0.005l0.059-0.001
		c0.867-0.016,3.505-0.066,3.505-2.211v-1.913c1.768,1.658,4.353,3.702,7.578,4.356c1.017,0.206,2.073,0.311,3.139,0.311
		c2.736,0,5.457-0.701,7.66-1.974c7.294-4.214,8.383-13.655,8.383-18.908c0-6.241-1.426-14.481-8.221-18.294
		c-1.945-1.092-4.389-1.693-6.88-1.693c-1.293,0-2.56,0.156-3.765,0.464c-2.418,0.618-4.766,1.943-7.149,4.043V46.388l0.001-0.18
		c0.008-0.651,0.023-1.863-1.261-2.436c-0.665-0.293-2.041-0.505-3.276-0.505c-3.554,0-3.938,1.65-3.938,2.36v0.255
		c-0.018,46.2-0.006,51.503,0.002,52.167H106.185z M114.659,73.661c0.13-0.258,0.684-0.799,0.927-1.037
		c0.17-0.166,0.319-0.313,0.421-0.426c0.901-1,1.831-1.876,2.765-2.602c1.734-1.347,3.629-2.059,5.479-2.059
		c0.566,0,1.135,0.067,1.691,0.198c4.977,1.176,6.021,7.682,6.021,12.933c0,2.412-0.42,10.421-5.829,12.203
		c-0.709,0.234-1.429,0.352-2.14,0.352c-3.772,0-7.099-3.372-9.337-6.049V73.661z"/>
	<path fill="#FFE4C9" d="M213.199,152.542c0,1.346-11.624,33.146-12.36,35.197c-0.466,1.278-1.864,1.336-3.039,1.387
		c-1.427,0.061-2.971,0.126-4.369-0.214c-0.921-0.225-1.329-0.805-1.616-1.609c-0.595-1.661-10.608-29.64-11.851-33.112
		c-0.314-0.94-0.826-2.288,0.495-2.632c1.203-0.314,2.646-0.191,3.874-0.113c1.19,0.077,1.924,0.457,2.305,1.57
		c0.507,1.481,7.175,20.969,9.332,27.271c0.258,0.75,0.97,1.069,1.331-0.001l0,0l9.306-27.625c0.281-1.27,1.888-1.228,2.91-1.249
		C210.445,151.391,213.199,151.036,213.199,152.542z M280.277,152.698c-0.175-0.819-0.801-1.081-1.549-1.312
		c-1.721-0.531-3.606-0.715-5.376-0.328c-2.851,0.624-5.042,2.961-6.779,5.307v-0.001c-0.44,0.581-0.991,0.381-0.991-0.254
		c0-1.018,0-2.035,0-3.053c0-1.231-0.784-1.571-1.974-1.632c-0.999-0.051-3.873-0.388-3.873,1.195c0,3.292,0,32.702,0,34.62
		c0,0.424-0.085,1.052,0.255,1.363c0.841,0.766,2.663,0.575,3.69,0.536c0.798-0.03,2.529-0.048,2.529-1.204
		c0-0.901,0-22.117,0-22.913c0-0.336-0.01-0.302,0.21-0.645c0.729-1.132,1.483-2.25,2.301-3.321
		c1.656-2.171,3.782-4.294,6.723-4.056c0.735,0.06,1.462,0.248,2.165,0.465c0.565,0.176,1.183,0.53,1.785,0.53
		c1.2,0,0.981-2.291,0.981-3.061C280.375,154.207,280.43,153.415,280.277,152.698z M147.243,185.28
		c-4.005-3.914-5.004-9.852-4.946-15.224c0.059-5.475,1.527-11.269,5.677-15.103c4.158-3.841,10.342-4.878,15.755-3.633
		c5.565,1.279,9.322,5.657,10.521,11.127c0.456,2.082,0.534,4.178,0.534,6.299c0,1.651-0.943,2.825-2.666,2.825
		c-0.609,0-16.854,0-22.306,0c-0.498,0-0.813,0.46-0.792,1.008c0.08,2.525,0.493,5.151,1.822,7.313
		c1.398,2.272,3.713,3.674,6.298,4.199c2.808,0.57,5.832,0.384,8.611-0.253c1.269-0.291,2.501-0.675,3.718-1.137
		c0.808-0.307,2.387-1.374,3.251-0.829c0.828,0.527,0.616,2.446,0.533,3.257c-0.154,1.455-0.905,1.917-2.166,2.464
		c-2.528,1.094-5.426,1.658-8.157,1.927C157.46,190.059,151.341,189.285,147.243,185.28z M149.058,166.104
		c-0.005,0.377,0.302,0.72,0.886,0.72c5.923,0,11.847,0,17.77,0c0.274,0,0.548-0.111,0.556-0.547
		c-0.009-2.384-0.445-4.835-1.803-6.833c-1.444-2.125-3.739-3.229-6.258-3.469c-2.911-0.277-5.783,0.445-7.911,2.528
		C150.278,160.481,149.29,163.318,149.058,166.104z M222.345,185.28c-4.005-3.914-5.004-9.852-4.946-15.224
		c0.059-5.475,1.527-11.269,5.677-15.103c4.158-3.841,10.342-4.878,15.756-3.633c5.564,1.279,9.322,5.657,10.521,11.127
		c0.456,2.082,0.534,4.178,0.534,6.299c0,1.651-0.943,2.825-2.666,2.825c-0.609,0-16.854,0-22.306,0
		c-0.498,0-0.813,0.46-0.792,1.008c0.08,2.525,0.493,5.151,1.822,7.313c1.398,2.272,3.713,3.674,6.298,4.199
		c2.808,0.57,5.832,0.384,8.611-0.253c1.269-0.291,2.501-0.675,3.718-1.137c0.808-0.307,2.387-1.374,3.251-0.829
		c0.828,0.527,0.616,2.446,0.533,3.257c-0.154,1.455-0.905,1.917-2.166,2.464c-2.528,1.094-5.426,1.658-8.157,1.927
		C232.563,190.059,226.443,189.285,222.345,185.28z M224.16,166.104c-0.005,0.377,0.303,0.72,0.886,0.72c5.923,0,11.847,0,17.77,0
		c0.274,0,0.548-0.111,0.556-0.547c-0.009-2.384-0.445-4.835-1.803-6.833c-1.444-2.125-3.739-3.229-6.258-3.469
		c-2.911-0.277-5.783,0.445-7.911,2.528C225.381,160.481,224.393,163.318,224.16,166.104z"/>
	<path fill="#FCECD2" d="M333.405,80.563l-0.001-0.001c-2.841-3.415-7.699-6.282-12.276-5.275c-5.31,1.169-7.602,7.131-7.606,12.032
		c0,4.703,2.387,9.629,6.858,11.568c3.407,1.478,8.489,1.116,11.31-1.564c0.485-0.461,1.668-0.295,1.849,0.377
		c3.7,13.727-2.263,33.388-19.128,33.052c-13.129-0.314-24.284-8.775-34.088-16.634c-4.659-3.731-10.087-7.516-16.353-5.674
		c-5.365,1.578-8.959,6.429-11.525,11.182c-0.186,0.345-0.786,0.407-0.917,0.082c-1.729-4.297-4.576-9.927-9.76-9.916
		c-4.868-0.007-8.764,4.959-11.239,9.023c-0.314,0.516-1.04,0.582-1.152,0.129c-0.336-1.358-0.86-2.687-1.708-3.873l0.001,0.002
		c-5.798-8.091-14.115,8.671-20.925,1.082c-1.828-4.884-6.569-7.816-11.736-7.251c-5.524,0.603-9.281,5.891-11.163,10.666
		c-2.051,2.623-4.199,5.171-6.471,7.604c-1.208,1.293-2.453,2.552-3.728,3.778c-1.155,1.11-2.542,2.951-4.189,3.298
		c-2.394,0.507-4.369-2.861-5.189-4.616c-1.423-3.045-1.658-6.534-2.23-9.802c-1.12-6.389-4.054-13.284-11.615-13.285
		c-6.891,0-12.491,5.741-16.672,10.689c-0.185,0.218-0.555,0.184-0.565-0.05c-0.281-6.02-3.231-12.083-10.3-10.944
		c-5.829,0.938-11.123,4.568-15.288,8.631c-0.165,0.16-0.495,0.029-0.501-0.202c-0.139-4.982-1.233-11.315-7.016-12.169
		c-6.223-0.918-12.964,2.354-19,3.498c-5.196,0.985-11.416,1.236-15.954-1.979c-2.934-2.078-6.194-7.453-5.821-11.646
		c0.063-0.708,0.388-1.44,1.586-0.363c2.488,1.846,8.72-0.521,7.717-3.885l-0.005-0.019l-0.003-0.01l-0.005,0.001l0.005-0.003
		c-3.135-9.976-16.576-4.285-17.917,3.86c-1.392,8.458,5.25,17.202,12.973,19.925c9.337,3.292,19.173-1.067,28.348-2.76
		c10.296-1.921,6.306,15.595,4.516,20.967l-0.02,0.091l-0.002,0.093l-0.001,0.069c0,3.965,5.627,1.716,7.418,0.554l0.008-0.006
		l0.024-0.017c0.429-0.27,0.781-0.62,1.057-1.05l0.008-0.013l0.01-0.018c3.319-5.75,8.384-16.32,15.937-17.16
		c6.904-0.768,3.159,14.702,2.695,18.086l-0.012,0.208c0.032,1.373,0.939,2.456,2.357,2.465v0.001l0.021,0.001
		c0.001,0,0.009,0,0.009,0h0.004h0.032c1.726-0.029,3.304-0.983,4.699-1.903l0.892-0.763c4.251-5.351,7.46-12.018,13.457-15.706
		c7.795-4.818,8.221,7.111,9.063,11.802c1.014,5.648,3.878,13.927,10.57,14.71c6.491,0.76,12.567-5.313,16.79-9.918
		c0.791-0.777,1.136-0.081,1.239,0.427c1.477,7.225,6.706,15.182,15.017,13.484c8.27-1.699,11.192-11.203,11.098-18.635
		c0.106-1.076,0.675-1.036,1.022-1.088c1.916-0.288,3.73-1.073,5.438-1.975c1.19-0.633,2.419-1.649,3.692-2.34
		c1.342-0.735,1.787,0.256,1.931,0.712c0.851,2.696,0.835,6.023,0.805,8.66c-0.043,3.63-0.229,7.348-0.958,10.915l-0.064,0.409
		c0.011,4.25,5.022,1.006,6.499-0.283c2.183-1.906,2.678-5.206,3.521-7.851c1.031-3.23,2.062-6.473,3.424-9.583
		c1.053-2.405,2.542-6.514,5.474-7.173h0.002c1.532,0.084,2.809,3.729,3.355,4.866c1.231,2.56,2.325,5.263,3.045,8.012
		c0.42,1.606,0.929,4.341,2.853,4.815c2.188,0.538,4.175-2.043,5.278-3.576l0.01-0.014l0.238-0.361
		c2.679-4.582,3.034-12.576,9.004-14.557c2.869-0.953,5.624,1.043,7.867,2.592c2.802,1.936,5.416,4.131,8.187,6.11
		c10.162,7.258,22.395,15.446,35.562,13.488c11.882-1.768,20.444-11.94,24.376-22.71C343.897,103.769,341.705,90.597,333.405,80.563
		z M199.977,136.712l-0.012,0.036c-0.263,0.818-0.771,1.9-1.808,1.652l0.003,0.001c-5.455-1.269-7.993-8.802-7.742-13.658
		c0.135-2.626,0.64-6.46,2.441-8.521c1.823-2.085,5.432,2.228,6.071,3.735C200.756,125.283,201.727,131.232,199.977,136.712z"/>
	<path fill="#FFE4C9" d="M110.328,99.263c0.839-0.017,2.586-0.021,2.586-1.213c0-0.793,0-1.585,0-2.379
		c0-1.032,0.652-1.237,1.234-0.686c0.002-0.001,0.004-0.001,0.006-0.002c2.134,2.074,4.583,3.931,7.537,4.53
		c3.355,0.68,7.127,0.168,10.1-1.549c6.211-3.588,7.884-11.401,7.884-18.042c0-6.5-1.586-13.985-7.71-17.422
		c-2.903-1.629-6.709-1.95-9.907-1.132c-2.877,0.735-5.368,2.499-7.506,4.528c-0.479,0.437-0.892,0.082-0.892-0.311
		c0-5.299,0-17.034,0-19.198c0-0.675,0.088-1.366-0.667-1.703c-1.075-0.474-5.807-0.929-5.807,0.942c0,0.095-0.021,52.223,0,52.422
		C107.185,99.443,109.388,99.283,110.328,99.263z M113.659,73.577c0-0.607,1.205-1.604,1.606-2.049
		c0.887-0.985,1.847-1.908,2.894-2.722c2.3-1.787,5.108-2.732,8.014-2.044c5.88,1.389,6.792,8.939,6.792,13.906
		c0,4.747-1.322,11.441-6.516,13.153c-5.307,1.749-9.707-2.544-12.79-6.286C113.659,82.882,113.659,78.23,113.659,73.577z
		 M167.688,99.635c2.73-0.269,5.627-0.833,8.157-1.927c1.26-0.546,2.011-1.009,2.166-2.464c0.083-0.811,0.295-2.729-0.533-3.256
		c-0.864-0.545-2.445,0.522-3.252,0.829c-1.216,0.462-2.45,0.846-3.718,1.137c-2.779,0.637-5.804,0.823-8.611,0.253
		c-2.585-0.525-4.9-1.926-6.298-4.199c-1.329-2.161-1.743-4.787-1.823-7.313c-0.021-0.548,0.294-1.008,0.792-1.008
		c5.452,0,21.697,0,22.306,0c1.724,0,2.667-1.174,2.667-2.825c0-2.121-0.079-4.218-0.535-6.299
		c-1.199-5.471-4.956-9.848-10.521-11.127c-5.414-1.245-11.597-0.208-15.755,3.633c-4.149,3.834-5.618,9.627-5.677,15.103
		c-0.059,5.372,0.941,11.31,4.946,15.224C156.098,99.4,162.216,100.174,167.688,99.635z M157.054,68.619
		c2.127-2.083,5-2.804,7.912-2.528c2.518,0.239,4.813,1.344,6.257,3.469c1.359,1.998,1.794,4.449,1.803,6.833
		c-0.008,0.436-0.282,0.547-0.556,0.547c-5.923,0-11.847,0-17.77,0c-0.584,0-0.891-0.343-0.886-0.72
		C154.047,73.434,155.034,70.597,157.054,68.619z M186.664,95.369c-0.182-1.114-0.226-2.485,0.176-3.558
		c0.538-1.433,2.462,0.179,3.191,0.579c2.547,1.397,5.23,2.274,8.158,2.203c2.516-0.061,5.505-0.86,6.569-3.406
		c1.114-2.662-0.065-5.107-2.379-6.556c-4.846-3.024-11.862-3.412-14.299-9.406c-1.022-2.517-0.853-5.605,0.282-8.051
		c1.166-2.516,3.421-4.238,5.965-5.215c2.643-1.015,5.656-1.216,8.444-0.81c1.298,0.189,2.59,0.491,3.817,0.958
		c0.941,0.357,2.529,0.943,2.913,1.977c0.358,0.966,0.316,2.22,0.196,3.223c-0.059,0.485-0.195,1.188-0.737,1.359
		c-0.602,0.19-1.254-0.421-1.733-0.692c-2.459-1.39-5.228-2.173-8.062-1.94c-2.74,0.225-5.333,1.689-5.526,4.697
		c-0.206,3.218,2.707,4.953,5.326,6.028c2.932,1.204,6.165,2.141,8.744,4.043c2.502,1.844,3.852,4.53,3.852,7.634
		c0,2.781-0.894,5.498-2.86,7.513c-1.951,1.999-4.651,3.074-7.365,3.535c-2.979,0.508-6.076,0.362-9.004-0.378
		C190.319,98.598,187.059,97.767,186.664,95.369z M215.233,63.736c0.09-1.16,0.414-2.021,1.654-2.021c1.352,0,2.703,0,4.053,0
		c0.24,0,0.507-0.11,0.507-0.537v-7.859c0-1.846,4.562-1.382,5.613-1.004c1.112,0.399,0.861,1.563,0.861,2.508
		c0,2.119,0,4.237,0,6.355c0,0.24,0.041,0.537,0.548,0.537h8.516c1.819,0,1.782,4.591,0.433,5.275
		c-0.599,0.304-6.279,0.13-8.949,0.104l0,0c-0.24-0.002-0.548,0.144-0.548,0.652v19.042c0,2.667,0.315,6.463,3.452,7.215
		c1.591,0.382,3.206,0.056,4.705-0.517c0.473-0.18,1.402-0.76,1.83-0.18c0.398,0.542,0.373,1.517,0.373,2.152
		c0,1.077,0,2.452-1.021,3.091c-1.168,0.73-2.707,0.932-4.049,1.072c-2.601,0.271-5.577-0.017-7.813-1.479
		c-3.577-2.339-3.95-7.003-3.95-10.888c0-5.007,0-16.49,0-19.51c0-0.4-0.267-0.655-0.774-0.655h-4.17
		C215.055,67.091,215.162,64.651,215.233,63.736z"/>
	<path fill="#6E4E42" d="M332.631,81.203c-2.848-3.428-8.423-6.563-12.854-4.389c-4.111,2.006-5.632,7.796-5.172,11.995
		c0.475,4.348,3.16,8.534,7.583,9.63c2.185,0.542,4.485,0.246,6.584-0.5c1.507-0.534,2.591-1.347,3.192-2.555
		c0.785-1.578,1.599-0.862,1.898-0.019c2.654,7.456,2.609,16.301-0.617,23.469c-3.38,7.512-10.374,13.127-18.861,12.919
		c-9.05-0.222-17.403-4.347-24.723-9.34c-3.461-2.359-6.705-4.896-9.97-7.515c-3.37-2.7-7.264-5.74-11.764-5.936
		c-7.538-0.326-12.394,6.614-15.445,12.757c-0.248,0.496-1.035,0.56-1.223,0.056c-1.743-4.658-4.887-11.821-10.456-10.902
		c-2.814,0.464-5.211,3.011-6.969,5.093c-1.661,1.967-3.016,4.168-4.178,6.461c-0.229,0.451-0.716,0.449-0.754-0.017
		c-0.199-2.363-0.673-4.837-2.052-6.756c-0.639-0.895-1.649-1.836-2.771-2.042c-1.263-0.229-2.471,0.634-3.437,1.328
		c-4.16,2.989-10.607,6.611-14.773,1.749c-0.101-0.309-2.621-7.669-10.753-6.791c-5.024,0.544-8.676,5.699-10.406,10.192
		c-2.295,2.939-4.72,5.798-7.294,8.497c-1.251,1.314-2.543,2.59-3.864,3.836c-1.119,1.054-2.313,2.467-3.886,2.804
		c-3,0.646-5.664-3.473-6.59-5.823c-1.292-3.28-1.526-6.909-2.203-10.345c-0.624-3.167-1.54-6.563-3.909-8.902
		c-2.203-2.174-5.437-3.022-8.446-2.423c-6.156,1.226-11.134,6.629-15.091,11.444c-0.442,0.537-1.234,0.331-1.224-0.307
		c0.043-2.846-0.209-5.819-1.569-8.312c-1.716-3.145-5.044-3.963-8.362-3.177c-5.849,1.381-10.843,4.908-14.965,9.184
		c-0.432,0.448-1.207,0.175-1.199-0.42c0.038-3.125-0.361-6.229-1.503-9.171c-1.379-3.617-5.319-3.918-8.645-3.387
		c-7.396,1.18-14.644,4.377-22.229,4.034c-3.41-0.155-7.202-1.09-9.874-3.317c-2.601-2.168-4.285-5.573-5.068-8.824
		c-0.39-1.622-0.495-3.655,0.012-5.264c0.49-1.551,1.776-1.054,2.175,0.232c0.727,2.438,7.427,0.504,6.668-2.042l-0.005-0.016
		l0.001,0.001c-1.344-4.264-5.092-5.715-9.154-4.042c-4.077,1.679-6.944,4.842-6.944,9.409c0.012,8.351,6.726,16.293,14.833,17.812
		c8.771,1.642,16.994-1.87,25.445-3.443c1.727-0.321,3.77-0.49,5.247,0.652c1.603,1.241,2.175,3.548,2.445,5.455
		c0.629,4.438-0.408,8.972-1.403,13.276c-0.19,0.824-0.608,2.781-0.608,2.781c-0.052,2.763,4.907,0.386,5.861-0.243
		c0.277-0.198,0.528-0.35,0.789-0.767c1.821-3.153,3.661-6.299,5.838-9.226c2.505-3.37,5.854-7.41,10.184-8.32
		c8.825-1.855,5.086,14.649,4.474,19.111v0.002c-0.001,0.002-0.001,0.006-0.001,0.009c0,0-0.102,1.542,1.404,1.523
		c1.428-0.019,3-0.971,4.158-1.736c0,0,0.522-0.384,0.658-0.548l0.002-0.002c4.289-5.394,7.675-12.217,13.717-15.937
		c3.055-1.881,6.486-1.893,8.208,1.605c1.555,3.158,1.729,6.762,2.253,10.181c0.85,5.53,4.067,15.056,11.101,14.616
		c3.495-0.219,6.678-2.443,9.303-4.587c2.563-2.094,4.886-4.477,7.081-6.954c0.267-0.302,0.83,0.022,0.874,0.504
		c0.666,7.314,5.566,16.778,14.183,15.011c3.997-0.819,7.014-4.389,8.646-7.945c1.517-3.307,1.786-6.928,1.624-10.522
		c-0.049-1.066,0.409-1.147,0.668-1.151c2.24-0.033,4.39-0.943,6.35-1.982c1.09-0.579,2.145-1.22,3.189-1.874
		c0.719-0.452,1.779-1.238,2.676-1.22c0.824,0.043,1.127,2.502,1.256,3.08c0.441,1.971,0.763,3.963,0.783,5.983
		c0.083,8.465-1.024,13.273-1.024,13.273c0,3.21,5.114-1.082,5.682-1.887c0.708-1.005,1.034-2.436,1.417-3.588
		c0.546-1.642,1.06-3.295,1.594-4.941c0.952-2.923,1.95-5.848,3.248-8.638c1.119-2.405,2.876-6.191,5.778-6.823l0.16-0.019
		c1.736-0.012,3.229,3.329,3.856,4.549c1.207,2.354,2.164,4.835,3.046,7.327c0.558,1.572,0.86,3.878,1.833,5.259
		c1.45,2.059,4.261-1.541,5.018-2.597l0.197-0.296c0.886-1.511,1.27-3.479,1.919-5.108c0.818-2.05,1.744-4.082,2.966-5.926
		c2.372-3.582,5.828-5.526,9.921-3.386c3.955,2.06,7.296,5.096,10.899,7.682c3.214,2.298,6.432,4.597,9.807,6.656
		c6.904,4.211,15.098,7.785,23.349,7.461c7.81-0.305,14.678-4.576,19.486-10.568c5.125-6.388,8.579-14.902,8.887-23.124
		C341.133,95.863,337.922,87.597,332.631,81.203z M330.18,91.604c-2.29,0.87-4.871,1.126-7.051-0.19
		c-2.24-1.352-3.951-4.281-4.163-6.877c-0.278-3.413,5.256-0.986,6.656-0.213c2.138,1.179,4.144,2.811,5.211,4.998
		C331.681,91.061,330.553,91.463,330.18,91.604z M200.934,137.019c-0.448,1.406-1.332,2.766-3.011,2.359
		c-1.685-0.409-3.147-1.697-4.318-2.915c-2.558-2.661-3.981-6.077-4.187-9.756c-0.112-1.985,0.106-3.98,0.575-5.909
		c0.412-1.693,0.938-3.887,2.108-5.233c2.397-2.763,6.842,1.843,7.766,4.024C201.771,125.131,202.755,131.319,200.934,137.019
		L200.934,137.019z"/>
</g>
</svg>
