<?xml version="1.0" encoding="UTF-8"?>
<!DOCTYPE svg PUBLIC "-//W3C//DTD SVG 1.1//EN" "http://www.w3.org/Graphics/SVG/1.1/DTD/svg11.dtd">
<!-- Creator: CorelDRAW -->
<svg xmlns="http://www.w3.org/2000/svg" xml:space="preserve" width="210mm" height="150mm" style="shape-rendering:geometricPrecision; text-rendering:geometricPrecision; image-rendering:optimizeQuality; fill-rule:evenodd; clip-rule:evenodd"
viewBox="0 0 210 150">
 <defs>
  <style type="text/css">
   <![CDATA[
    .str0 {stroke:#1F1A17;stroke-width:0.0762}
    .fil4 {fill:#1F1A17}
    .fil0 {fill:#71625B}
    .fil3 {fill:white}
    .fil1 {fill:#006D39}
    .fil2 {fill:#18A842}
   ]]>
  </style>
 </defs>
 <g id="Layer_x0020_1">
  <metadata id="CorelCorpID_0Corel-Layer"/>
  <polygon class="fil0 str0" points="96.0686,122.431 106.315,147.023 114.513,122.724 104.852,115.99 "/>
  <path class="fil1" d="M106.009 121.004c-23.3888,12.0476 -76.9108,15.4472 -105.26,12.2958 28.9653,-8.8335 49.2766,-27.4449 65.0943,-49.4254 -13.9741,6.045 -24.5599,8.629 -36.3346,5.8749 19.1279,-7.894 38.4278,-15.9453 55.3471,-48.1312 -15.0817,9.785 -22.8623,7.5967 -31.5176,5.4025 18.3519,-3.2846 38.2616,-19.5664 52.0857,-45.2107 13.824,24.7593 32.2699,42.5049 50.6218,45.7896 -8.6553,2.1941 -16.4359,4.3824 -31.5176,-5.4026 16.9193,32.1859 36.2192,40.2372 55.3471,48.1313 -11.7747,2.754 -22.3605,0.17 -36.3347,-5.875 15.8178,21.9805 36.1291,40.5919 65.0944,49.4254 -28.3496,3.1514 -79.2367,-0.541 -102.626,-12.8746z"/>
  <path class="fil2" d="M104.838 113.532c-21.9182,12.1939 -57.8743,19.6922 -86.2239,16.5408 28.9652,-8.8334 42.8358,-32.7146 58.6535,-54.6951 -13.9742,6.045 -19.2902,9.2145 -30.7721,11.7302 20.8845,-4.9664 29.3521,-20.6296 46.2713,-52.8155 -9.8119,6.5646 -15.8359,10.2317 -22.7346,11.2579 9.2762,-3.5774 20.403,-11.0762 34.6594,-35.9886 14.2565,25.4912 27.4326,32.4045 36.7088,35.9819 -6.8987,-1.0262 -15.2648,-5.5716 -25.0767,-12.1362 16.7207,30.9932 26.2009,44.8309 47.7352,53.6938 -11.482,-2.5157 -17.969,-5.0997 -31.9432,-11.1447 15.8177,21.9805 29.6882,45.8617 58.6535,54.6951 -28.3496,3.1515 -64.0129,-4.9324 -85.9312,-17.1196z"/>
  <path class="fil1" d="M95.372 53.0454c4.9502,0 8.9647,4.8508 8.9647,10.8323 0,5.9815 -4.0145,10.8323 -8.9647,10.8323 -4.9502,0 -8.9646,-4.8508 -8.9646,-10.8323 0,-5.9815 4.0144,-10.8323 8.9646,-10.8323z"/>
  <path class="fil3" d="M96.892 56.1011c3.6276,0.707 5.8771,4.8342 5.0234,9.2178 -0.8536,4.383 -4.4874,7.3649 -8.1154,6.6589 -3.6277,-0.7071 -5.8771,-4.8343 -5.0234,-9.2179 0.8535,-4.383 4.4872,-7.3649 8.1154,-6.6588z"/>
  <path class="fil1" d="M118.522 52.7827c-4.9334,-0.4078 -9.3339,4.0956 -9.8268,10.0569 -0.4929,5.9611 3.1083,11.1262 8.0416,11.5341 4.9334,0.4079 9.3339,-4.0956 9.8268,-10.0569 0.4929,-5.9611 -3.1083,-11.1262 -8.0416,-11.5341z"/>
  <path class="fil3" d="M116.755 55.7028c-3.6735,0.4056 -6.2553,4.3336 -5.7657,8.7726 0.4895,4.4384 3.8652,7.7095 7.5391,7.3049 3.6735,-0.4057 6.2554,-4.3336 5.7658,-8.7726 -0.4894,-4.4384 -3.8652,-7.7096 -7.5392,-7.3049z"/>
  <ellipse class="fil4" cx="98.0299" cy="66.7289" rx="4.4037" ry="4.64074"/>
  <ellipse class="fil4" cx="120.287" cy="66.4295" rx="4.4037" ry="4.64074"/>
  <ellipse class="fil3" transform="matrix(1.47911 0.727642 -0.727642 1.47911 98.572 64.7642)" rx="0.7398" ry="0.5959"/>
  <path class="fil1" d="M89.335 88.7627c6.1481,0.9759 12.3553,4.2221 18.4442,2.9277 7.0565,-1.5002 12.4912,-7.2215 18.737,-10.8323 -3.5132,7.4168 -4.0693,17.2019 -10.5396,22.2501 -4.2492,3.3153 -11.3568,1.0912 -16.1021,-1.4638 -4.8847,-2.6302 -7.0263,-8.5879 -10.5395,-12.8817z"/>
  <ellipse class="fil3" transform="matrix(1.47911 0.727642 -0.727642 1.47911 120.829 64.4647)" rx="0.7398" ry="0.5959"/>
  <path class="fil4" d="M96.0385 92.4548c4.1915,0.6653 9.393,2.1165 13.5439,1.2341 4.8106,-1.0225 9.0698,-4.5077 12.7738,-8.1466 -2.3951,5.0564 -2.7742,11.7274 -7.1853,15.1689 -2.8969,2.2602 -7.7425,0.7439 -10.9775,-0.9979 -3.3301,-1.7931 -5.7598,-4.3312 -8.1549,-7.2585z"/>
 </g>
</svg>
